<svg width="206" height="206" viewBox="0 0 206 206" fill="none" xmlns="http://www.w3.org/2000/svg">
<g filter="url(#filter0_ii_14_33)">
<circle cx="103.001" cy="103" r="86.906" fill="#737472"/>
</g>
<g filter="url(#filter1_ddii_14_33)">
<path d="M104.289 52.9647C105.464 53.0085 106.626 53.095 107.776 53.2245L109.189 47.0497L109.342 53.4218C110.503 53.5859 111.648 53.7895 112.778 54.0321L114.815 48.0126L114.322 54.3983C115.455 54.6719 116.57 54.9915 117.665 55.3563L120.326 49.5311L119.178 55.8729C120.268 56.2651 121.338 56.6962 122.389 57.1649L125.642 51.5966L123.849 57.8348C124.886 58.3364 125.901 58.8722 126.896 59.4413L130.728 54.1874L128.284 60.2616C129.258 60.8599 130.209 61.4912 131.136 62.1552L135.516 57.2714L132.448 63.1239C133.348 63.8133 134.227 64.5354 135.076 65.285L139.976 60.828L136.286 66.41C137.107 67.1834 137.901 67.9832 138.667 68.8094L144.052 64.8475L139.792 70.0458C140.524 70.8939 141.229 71.7653 141.906 72.6591L147.702 69.2196L142.892 74.0243C143.533 74.9326 144.143 75.8654 144.723 76.8212L150.885 73.9618L145.575 78.2762C146.115 79.2393 146.623 80.2221 147.099 81.2235L153.58 78.9823L147.805 82.7802C148.247 83.7852 148.651 84.8078 149.016 85.8475L155.748 84.2577L149.555 87.4803C149.886 88.5201 150.18 89.5722 150.439 90.6356L157.374 89.7264L150.844 92.3319C151.06 93.3879 151.242 94.4565 151.392 95.538L158.436 95.33L151.608 97.2762C151.716 98.3322 151.792 99.4075 151.835 100.502L158.926 101.014L151.876 102.253V102.438C151.876 103.453 151.841 104.463 151.781 105.465L158.838 106.699L151.644 107.246C151.54 108.313 151.403 109.37 151.233 110.415L158.175 112.371L150.916 112.182C150.708 113.225 150.467 114.259 150.193 115.276L156.941 117.952L149.684 117.014C149.375 118.023 149.029 119.023 148.657 120.005L155.14 123.353L147.984 121.692C147.571 122.661 147.132 123.613 146.665 124.549L152.807 128.563L145.818 126.169C145.314 127.088 144.783 127.988 144.225 128.869L149.974 133.52L143.226 130.418C142.637 131.277 142.021 132.118 141.38 132.938L146.645 138.153L140.208 134.352C139.539 135.148 138.846 135.92 138.128 136.67L142.853 142.416L136.831 137.986C136.086 138.716 135.321 139.417 134.537 140.088L138.667 146.293L133.105 141.266C132.297 141.909 131.464 142.525 130.616 143.116L134.101 149.716L129.075 144.15C128.207 144.708 127.317 145.24 126.414 145.743L129.214 152.66L124.777 146.616C123.857 147.084 122.918 147.524 121.968 147.934L124.043 155.095L120.244 148.638C119.282 149.01 118.305 149.353 117.314 149.669L118.683 156.996L115.538 150.194C114.548 150.47 113.544 150.714 112.526 150.928L113.125 158.346L110.695 151.272C109.678 151.446 108.65 151.588 107.612 151.699L107.458 159.125L105.786 151.858C104.72 151.939 103.645 151.978 102.561 151.978L101.641 159.328L100.71 151.948C99.6629 151.913 98.6224 151.849 97.5894 151.752L95.9468 158.936L95.7769 151.549C94.733 151.412 93.6991 151.242 92.6753 151.04L90.3208 157.978L90.896 150.651C89.8667 150.41 88.851 150.137 87.8491 149.831L84.8208 156.46L86.1274 149.272C85.1237 148.924 84.1353 148.546 83.1626 148.14L79.5024 154.389L81.5171 147.412C80.5509 146.963 79.5981 146.49 78.6675 145.981L74.4214 151.793L77.1147 145.099C76.1932 144.552 75.2911 143.978 74.4097 143.376L69.6304 148.692L72.9614 142.35C72.0964 141.714 71.2534 141.048 70.4321 140.355L65.1763 145.127L69.1021 139.198C68.299 138.47 67.521 137.72 66.769 136.946L61.1079 141.127L65.5757 135.674C64.8457 134.868 64.1425 134.038 63.4673 133.184L57.4644 136.741L62.4165 131.816C61.7677 130.935 61.1436 130.035 60.5522 129.11L54.2808 132.011L59.6567 127.649C59.0947 126.701 58.5651 125.734 58.0669 124.749L51.5942 126.978L57.3276 123.217C56.8641 122.212 56.4324 121.189 56.0327 120.149L49.4321 121.701L55.4546 118.568C55.0932 117.514 54.7671 116.445 54.4751 115.361L47.811 116.228L54.0669 113.744C53.8151 112.655 53.598 111.553 53.4155 110.436L46.7544 110.625L53.1772 108.803C53.0349 107.686 52.9304 106.561 52.8647 105.427L46.27 104.932L52.7915 103.776C52.7751 103.339 52.7749 102.898 52.7749 102.458C52.7749 101.757 52.7934 101.059 52.8208 100.367L46.3628 99.2294L52.9116 98.7528C52.9992 97.6038 53.1242 96.4671 53.2866 95.3436L47.0337 93.5741L53.5415 93.7518C53.7441 92.6136 53.9849 91.4887 54.2642 90.3778L48.2739 88.0009L54.6772 88.8212C54.9966 87.7067 55.3534 86.6077 55.7476 85.5243L50.0728 82.5829L56.3169 84.0409C56.7512 82.9593 57.2204 81.8978 57.7241 80.8563L52.4292 77.368L58.4526 79.4393C58.9965 78.407 59.5748 77.3955 60.188 76.4052L55.2603 72.4266L61.0259 75.0829C61.6736 74.1091 62.3533 73.1598 63.0649 72.2352L58.5972 67.7968L64.0396 71.0096C64.7842 70.1049 65.56 69.2279 66.3667 68.3798L62.3833 63.5292L67.4595 67.2665C68.2917 66.4402 69.1529 65.6439 70.0435 64.8778L66.5835 59.6796L71.2368 63.8954C72.153 63.1566 73.0946 62.4525 74.0601 61.7831L71.1499 56.2704L75.3462 60.9218C76.3317 60.2797 77.3404 59.6735 78.3716 59.1044L76.0415 53.326L79.7378 58.3739C80.7762 57.8377 81.8431 57.3381 82.938 56.8749L81.2046 50.8964L84.3726 56.2919C85.4675 55.8651 86.5798 55.4783 87.7095 55.1317L86.5874 48.9999L89.1987 54.6991C90.3265 54.3818 91.4708 54.1086 92.6313 53.8788L92.1362 47.6483L94.1616 53.6024C95.3114 53.4109 96.4757 53.2607 97.6528 53.1512L97.7896 46.8739L99.2104 53.0302C100.242 52.9645 101.28 52.9296 102.326 52.9296H102.717L103.495 46.6718L104.289 52.9647ZM102.598 60.6483C79.2079 60.6483 60.2456 79.6096 60.2456 103C60.2457 126.39 79.2079 145.351 102.598 145.351C125.988 145.351 144.95 126.39 144.95 103C144.95 79.6097 125.988 60.6485 102.598 60.6483Z" fill="url(#paint0_linear_14_33)"/>
<path d="M104.289 52.9647C105.464 53.0085 106.626 53.095 107.776 53.2245L109.189 47.0497L109.342 53.4218C110.503 53.5859 111.648 53.7895 112.778 54.0321L114.815 48.0126L114.322 54.3983C115.455 54.6719 116.57 54.9915 117.665 55.3563L120.326 49.5311L119.178 55.8729C120.268 56.2651 121.338 56.6962 122.389 57.1649L125.642 51.5966L123.849 57.8348C124.886 58.3364 125.901 58.8722 126.896 59.4413L130.728 54.1874L128.284 60.2616C129.258 60.8599 130.209 61.4912 131.136 62.1552L135.516 57.2714L132.448 63.1239C133.348 63.8133 134.227 64.5354 135.076 65.285L139.976 60.828L136.286 66.41C137.107 67.1834 137.901 67.9832 138.667 68.8094L144.052 64.8475L139.792 70.0458C140.524 70.8939 141.229 71.7653 141.906 72.6591L147.702 69.2196L142.892 74.0243C143.533 74.9326 144.143 75.8654 144.723 76.8212L150.885 73.9618L145.575 78.2762C146.115 79.2393 146.623 80.2221 147.099 81.2235L153.58 78.9823L147.805 82.7802C148.247 83.7852 148.651 84.8078 149.016 85.8475L155.748 84.2577L149.555 87.4803C149.886 88.5201 150.18 89.5722 150.439 90.6356L157.374 89.7264L150.844 92.3319C151.06 93.3879 151.242 94.4565 151.392 95.538L158.436 95.33L151.608 97.2762C151.716 98.3322 151.792 99.4075 151.835 100.502L158.926 101.014L151.876 102.253V102.438C151.876 103.453 151.841 104.463 151.781 105.465L158.838 106.699L151.644 107.246C151.54 108.313 151.403 109.37 151.233 110.415L158.175 112.371L150.916 112.182C150.708 113.225 150.467 114.259 150.193 115.276L156.941 117.952L149.684 117.014C149.375 118.023 149.029 119.023 148.657 120.005L155.14 123.353L147.984 121.692C147.571 122.661 147.132 123.613 146.665 124.549L152.807 128.563L145.818 126.169C145.314 127.088 144.783 127.988 144.225 128.869L149.974 133.52L143.226 130.418C142.637 131.277 142.021 132.118 141.38 132.938L146.645 138.153L140.208 134.352C139.539 135.148 138.846 135.92 138.128 136.67L142.853 142.416L136.831 137.986C136.086 138.716 135.321 139.417 134.537 140.088L138.667 146.293L133.105 141.266C132.297 141.909 131.464 142.525 130.616 143.116L134.101 149.716L129.075 144.15C128.207 144.708 127.317 145.24 126.414 145.743L129.214 152.66L124.777 146.616C123.857 147.084 122.918 147.524 121.968 147.934L124.043 155.095L120.244 148.638C119.282 149.01 118.305 149.353 117.314 149.669L118.683 156.996L115.538 150.194C114.548 150.47 113.544 150.714 112.526 150.928L113.125 158.346L110.695 151.272C109.678 151.446 108.65 151.588 107.612 151.699L107.458 159.125L105.786 151.858C104.72 151.939 103.645 151.978 102.561 151.978L101.641 159.328L100.71 151.948C99.6629 151.913 98.6224 151.849 97.5894 151.752L95.9468 158.936L95.7769 151.549C94.733 151.412 93.6991 151.242 92.6753 151.04L90.3208 157.978L90.896 150.651C89.8667 150.41 88.851 150.137 87.8491 149.831L84.8208 156.46L86.1274 149.272C85.1237 148.924 84.1353 148.546 83.1626 148.14L79.5024 154.389L81.5171 147.412C80.5509 146.963 79.5981 146.49 78.6675 145.981L74.4214 151.793L77.1147 145.099C76.1932 144.552 75.2911 143.978 74.4097 143.376L69.6304 148.692L72.9614 142.35C72.0964 141.714 71.2534 141.048 70.4321 140.355L65.1763 145.127L69.1021 139.198C68.299 138.47 67.521 137.72 66.769 136.946L61.1079 141.127L65.5757 135.674C64.8457 134.868 64.1425 134.038 63.4673 133.184L57.4644 136.741L62.4165 131.816C61.7677 130.935 61.1436 130.035 60.5522 129.11L54.2808 132.011L59.6567 127.649C59.0947 126.701 58.5651 125.734 58.0669 124.749L51.5942 126.978L57.3276 123.217C56.8641 122.212 56.4324 121.189 56.0327 120.149L49.4321 121.701L55.4546 118.568C55.0932 117.514 54.7671 116.445 54.4751 115.361L47.811 116.228L54.0669 113.744C53.8151 112.655 53.598 111.553 53.4155 110.436L46.7544 110.625L53.1772 108.803C53.0349 107.686 52.9304 106.561 52.8647 105.427L46.27 104.932L52.7915 103.776C52.7751 103.339 52.7749 102.898 52.7749 102.458C52.7749 101.757 52.7934 101.059 52.8208 100.367L46.3628 99.2294L52.9116 98.7528C52.9992 97.6038 53.1242 96.4671 53.2866 95.3436L47.0337 93.5741L53.5415 93.7518C53.7441 92.6136 53.9849 91.4887 54.2642 90.3778L48.2739 88.0009L54.6772 88.8212C54.9966 87.7067 55.3534 86.6077 55.7476 85.5243L50.0728 82.5829L56.3169 84.0409C56.7512 82.9593 57.2204 81.8978 57.7241 80.8563L52.4292 77.368L58.4526 79.4393C58.9965 78.407 59.5748 77.3955 60.188 76.4052L55.2603 72.4266L61.0259 75.0829C61.6736 74.1091 62.3533 73.1598 63.0649 72.2352L58.5972 67.7968L64.0396 71.0096C64.7842 70.1049 65.56 69.2279 66.3667 68.3798L62.3833 63.5292L67.4595 67.2665C68.2917 66.4402 69.1529 65.6439 70.0435 64.8778L66.5835 59.6796L71.2368 63.8954C72.153 63.1566 73.0946 62.4525 74.0601 61.7831L71.1499 56.2704L75.3462 60.9218C76.3317 60.2797 77.3404 59.6735 78.3716 59.1044L76.0415 53.326L79.7378 58.3739C80.7762 57.8377 81.8431 57.3381 82.938 56.8749L81.2046 50.8964L84.3726 56.2919C85.4675 55.8651 86.5798 55.4783 87.7095 55.1317L86.5874 48.9999L89.1987 54.6991C90.3265 54.3818 91.4708 54.1086 92.6313 53.8788L92.1362 47.6483L94.1616 53.6024C95.3114 53.4109 96.4757 53.2607 97.6528 53.1512L97.7896 46.8739L99.2104 53.0302C100.242 52.9645 101.28 52.9296 102.326 52.9296H102.717L103.495 46.6718L104.289 52.9647ZM102.598 60.6483C79.2079 60.6483 60.2456 79.6096 60.2456 103C60.2457 126.39 79.2079 145.351 102.598 145.351C125.988 145.351 144.95 126.39 144.95 103C144.95 79.6097 125.988 60.6485 102.598 60.6483Z" fill="url(#paint1_linear_14_33)" fill-opacity="0.1" style="mix-blend-mode:soft-light"/>
</g>
<g filter="url(#filter2_ddii_14_33)">
<path d="M105.386 29.371C107.114 29.4353 108.822 29.5624 110.512 29.7528L112.588 20.6727L112.813 30.0428C114.519 30.2843 116.202 30.5836 117.863 30.9403L120.856 22.0887L120.132 31.4794C121.798 31.8817 123.435 32.3512 125.044 32.8876L128.956 24.3212L127.269 33.6483C128.87 34.225 130.444 34.8574 131.989 35.5468L136.769 27.3593L134.133 36.5331C135.657 37.2707 137.15 38.0575 138.612 38.8944L144.245 31.1698L140.652 40.1014C142.084 40.9812 143.482 41.9093 144.844 42.8856L151.282 35.704L146.771 44.3094C148.095 45.3233 149.386 46.3858 150.633 47.4882L157.835 40.9344L152.412 49.1425C153.619 50.2797 154.786 51.4557 155.913 52.6708L163.827 46.8446L157.566 54.4891C158.642 55.7364 159.677 57.0176 160.672 58.3319L169.19 53.2743L162.121 60.3397C163.062 61.6753 163.959 63.0457 164.812 64.451L173.869 60.2469L166.063 66.5917C166.857 68.0078 167.604 69.4522 168.304 70.9247L177.828 67.6298L169.342 73.2137C169.991 74.6917 170.584 76.1956 171.121 77.7245L181.014 75.3866L171.914 80.1268C172.399 81.6556 172.833 83.2019 173.213 84.7655L183.405 83.4296L173.808 87.2596C174.125 88.8127 174.393 90.3849 174.613 91.9755L184.965 91.6698L174.931 94.5302C175.089 96.0832 175.201 97.6649 175.265 99.2743L185.686 100.026L175.326 101.849V102.123C175.326 103.615 175.273 105.1 175.184 106.572L185.557 108.387L174.983 109.191C174.83 110.76 174.629 112.314 174.379 113.85L184.583 116.727L173.913 116.45C173.607 117.983 173.253 119.504 172.851 121.001L182.769 124.935L172.102 123.556C171.647 125.04 171.14 126.509 170.593 127.953L180.122 132.878L169.604 130.435C168.998 131.86 168.351 133.26 167.665 134.636L176.693 140.538L166.421 137.017C165.681 138.369 164.9 139.694 164.08 140.989L172.529 147.829L162.611 143.266C161.745 144.53 160.841 145.765 159.9 146.972L167.636 154.641L158.177 149.052C157.193 150.221 156.174 151.357 155.12 152.46L162.064 160.909L153.212 154.394C152.118 155.467 150.995 156.498 149.841 157.485L155.913 166.61L147.737 159.219C146.55 160.164 145.327 161.069 144.08 161.938L149.201 171.643L141.814 163.46C140.539 164.281 139.231 165.061 137.904 165.802L142.019 175.973L135.498 167.085C134.146 167.773 132.766 168.421 131.37 169.024L134.419 179.554L128.834 170.058C127.421 170.606 125.986 171.111 124.53 171.575L126.542 182.349L121.918 172.348C120.465 172.753 118.989 173.112 117.493 173.426L118.374 184.333L114.801 173.932C113.307 174.187 111.797 174.397 110.271 174.56L110.045 185.479L107.586 174.794C106.02 174.912 104.44 174.971 102.847 174.971L101.496 185.777L100.127 174.927C98.5878 174.876 97.0587 174.779 95.5405 174.637L93.1265 185.202L92.8774 174.339C91.3432 174.138 89.8236 173.888 88.3188 173.591L84.8589 183.794L85.7036 173.019C84.1908 172.665 82.6977 172.263 81.2251 171.812L76.7759 181.561L78.6948 170.991C77.2196 170.479 75.767 169.924 74.3374 169.326L68.9585 178.516L71.9194 168.256C70.4992 167.596 69.0989 166.9 67.731 166.151L61.4907 174.697L65.4497 164.855C64.0952 164.051 62.7696 163.206 61.4741 162.321L54.4497 170.139L59.3462 160.812C58.0748 159.876 56.8354 158.898 55.6284 157.879L47.9038 164.896L53.6733 156.178C52.4931 155.107 51.3497 154.003 50.2446 152.866L41.9243 159.014L48.4907 150.995C47.4179 149.81 46.3854 148.589 45.3931 147.334L36.5698 152.564L43.8481 145.322C42.8946 144.027 41.977 142.703 41.1079 141.343L31.8901 145.607L39.7925 139.194C38.9663 137.799 38.1868 136.378 37.4546 134.93L27.9429 138.209L36.3687 132.677C35.6874 131.199 35.0528 129.695 34.4653 128.166L24.7651 130.447L33.6167 125.841C33.0856 124.29 32.6054 122.718 32.1763 121.125L22.3833 122.4L31.5767 118.747C31.2065 117.146 30.8869 115.524 30.6187 113.883L20.8296 114.161L30.269 111.481C30.0598 109.84 29.9066 108.185 29.8101 106.516L20.1177 105.788L29.7017 104.09C29.6775 103.446 29.6772 102.798 29.6772 102.15C29.6773 101.12 29.7054 100.095 29.7456 99.077L20.2544 97.4032L29.8784 96.703C30.0072 95.0132 30.1915 93.3416 30.4302 91.6893L21.2397 89.0868L30.8042 89.3485C31.1019 87.6749 31.4554 86.021 31.8657 84.3876L23.063 80.8905L32.4731 82.0975C32.9425 80.4588 33.4671 78.843 34.0464 77.2499L25.7065 72.9247L34.8833 75.0692C35.5217 73.4786 36.2114 71.9172 36.9517 70.3856L29.1704 65.2557L38.022 68.3016C38.8213 66.7835 39.6715 65.2962 40.5728 63.8397L33.3306 57.9891L41.8042 61.8964C42.7564 60.4641 43.7552 59.0678 44.8013 57.7079L38.2349 51.1815L46.2339 55.9052C47.3282 54.5748 48.4683 53.2861 49.6538 52.0389L43.7993 44.9052L51.2593 50.4012C52.4823 49.1862 53.7482 48.015 55.0571 46.8885L49.9712 39.244L56.811 45.4442C58.1575 44.3579 59.5406 43.3231 60.9595 42.3387L56.6821 34.2313L62.8501 41.0712C64.2985 40.127 65.7809 39.2362 67.2964 38.3993L63.8726 29.9022L69.3042 37.3251C70.8304 36.5365 72.398 35.8013 74.0073 35.12L71.4604 26.329L76.1157 34.2635C77.725 33.6359 79.3598 33.0671 81.02 32.5575L79.3706 23.5409L83.2095 31.9218C84.867 31.4551 86.5486 31.0527 88.2544 30.7147L87.5259 21.5536L90.5034 30.3085C92.1933 30.0268 93.9032 29.8053 95.6333 29.6444L95.8345 20.4149L97.9224 29.4677C99.4392 29.3711 100.965 29.3182 102.501 29.3182H103.077L104.219 20.1171L105.386 29.371ZM106.785 105.606C105.378 105.613 104.082 106.367 103.378 107.585L75.9683 155.06C74.7811 157.117 75.688 159.768 77.9097 160.605C133.534 181.578 163.053 137.605 167.801 109.568C168.189 107.28 166.348 105.313 164.027 105.324L106.785 105.606ZM70.0923 51.4354C68.9051 49.3792 66.1561 48.8395 64.3198 50.3446C18.345 88.0301 41.6662 135.58 63.5728 153.711C65.3607 155.191 67.9848 154.58 69.1353 152.564L97.5122 102.85C98.2093 101.629 98.2056 100.129 97.5024 98.911L70.0923 51.4354ZM102.703 97.8593C100.703 97.8593 99.0818 99.4807 99.0815 101.48C99.0815 103.48 100.703 105.101 102.703 105.101C104.702 105.101 106.324 103.48 106.324 101.48C106.323 99.4808 104.702 97.8594 102.703 97.8593ZM166.844 93.6073C157.195 34.949 104.353 31.3706 77.6987 41.2772C75.5234 42.0857 74.7405 44.6637 75.9106 46.6678L104.776 96.0995C105.485 97.3139 106.786 98.0612 108.192 98.0614H163.013C165.387 98.0613 167.23 95.9501 166.844 93.6073Z" fill="url(#paint2_linear_14_33)"/>
<path d="M105.386 29.371C107.114 29.4353 108.822 29.5624 110.512 29.7528L112.588 20.6727L112.813 30.0428C114.519 30.2843 116.202 30.5836 117.863 30.9403L120.856 22.0887L120.132 31.4794C121.798 31.8817 123.435 32.3512 125.044 32.8876L128.956 24.3212L127.269 33.6483C128.87 34.225 130.444 34.8574 131.989 35.5468L136.769 27.3593L134.133 36.5331C135.657 37.2707 137.15 38.0575 138.612 38.8944L144.245 31.1698L140.652 40.1014C142.084 40.9812 143.482 41.9093 144.844 42.8856L151.282 35.704L146.771 44.3094C148.095 45.3233 149.386 46.3858 150.633 47.4882L157.835 40.9344L152.412 49.1425C153.619 50.2797 154.786 51.4557 155.913 52.6708L163.827 46.8446L157.566 54.4891C158.642 55.7364 159.677 57.0176 160.672 58.3319L169.19 53.2743L162.121 60.3397C163.062 61.6753 163.959 63.0457 164.812 64.451L173.869 60.2469L166.063 66.5917C166.857 68.0078 167.604 69.4522 168.304 70.9247L177.828 67.6298L169.342 73.2137C169.991 74.6917 170.584 76.1956 171.121 77.7245L181.014 75.3866L171.914 80.1268C172.399 81.6556 172.833 83.2019 173.213 84.7655L183.405 83.4296L173.808 87.2596C174.125 88.8127 174.393 90.3849 174.613 91.9755L184.965 91.6698L174.931 94.5302C175.089 96.0832 175.201 97.6649 175.265 99.2743L185.686 100.026L175.326 101.849V102.123C175.326 103.615 175.273 105.1 175.184 106.572L185.557 108.387L174.983 109.191C174.83 110.76 174.629 112.314 174.379 113.85L184.583 116.727L173.913 116.45C173.607 117.983 173.253 119.504 172.851 121.001L182.769 124.935L172.102 123.556C171.647 125.04 171.14 126.509 170.593 127.953L180.122 132.878L169.604 130.435C168.998 131.86 168.351 133.26 167.665 134.636L176.693 140.538L166.421 137.017C165.681 138.369 164.9 139.694 164.08 140.989L172.529 147.829L162.611 143.266C161.745 144.53 160.841 145.765 159.9 146.972L167.636 154.641L158.177 149.052C157.193 150.221 156.174 151.357 155.12 152.46L162.064 160.909L153.212 154.394C152.118 155.467 150.995 156.498 149.841 157.485L155.913 166.61L147.737 159.219C146.55 160.164 145.327 161.069 144.08 161.938L149.201 171.643L141.814 163.46C140.539 164.281 139.231 165.061 137.904 165.802L142.019 175.973L135.498 167.085C134.146 167.773 132.766 168.421 131.37 169.024L134.419 179.554L128.834 170.058C127.421 170.606 125.986 171.111 124.53 171.575L126.542 182.349L121.918 172.348C120.465 172.753 118.989 173.112 117.493 173.426L118.374 184.333L114.801 173.932C113.307 174.187 111.797 174.397 110.271 174.56L110.045 185.479L107.586 174.794C106.02 174.912 104.44 174.971 102.847 174.971L101.496 185.777L100.127 174.927C98.5878 174.876 97.0587 174.779 95.5405 174.637L93.1265 185.202L92.8774 174.339C91.3432 174.138 89.8236 173.888 88.3188 173.591L84.8589 183.794L85.7036 173.019C84.1908 172.665 82.6977 172.263 81.2251 171.812L76.7759 181.561L78.6948 170.991C77.2196 170.479 75.767 169.924 74.3374 169.326L68.9585 178.516L71.9194 168.256C70.4992 167.596 69.0989 166.9 67.731 166.151L61.4907 174.697L65.4497 164.855C64.0952 164.051 62.7696 163.206 61.4741 162.321L54.4497 170.139L59.3462 160.812C58.0748 159.876 56.8354 158.898 55.6284 157.879L47.9038 164.896L53.6733 156.178C52.4931 155.107 51.3497 154.003 50.2446 152.866L41.9243 159.014L48.4907 150.995C47.4179 149.81 46.3854 148.589 45.3931 147.334L36.5698 152.564L43.8481 145.322C42.8946 144.027 41.977 142.703 41.1079 141.343L31.8901 145.607L39.7925 139.194C38.9663 137.799 38.1868 136.378 37.4546 134.93L27.9429 138.209L36.3687 132.677C35.6874 131.199 35.0528 129.695 34.4653 128.166L24.7651 130.447L33.6167 125.841C33.0856 124.29 32.6054 122.718 32.1763 121.125L22.3833 122.4L31.5767 118.747C31.2065 117.146 30.8869 115.524 30.6187 113.883L20.8296 114.161L30.269 111.481C30.0598 109.84 29.9066 108.185 29.8101 106.516L20.1177 105.788L29.7017 104.09C29.6775 103.446 29.6772 102.798 29.6772 102.15C29.6773 101.12 29.7054 100.095 29.7456 99.077L20.2544 97.4032L29.8784 96.703C30.0072 95.0132 30.1915 93.3416 30.4302 91.6893L21.2397 89.0868L30.8042 89.3485C31.1019 87.6749 31.4554 86.021 31.8657 84.3876L23.063 80.8905L32.4731 82.0975C32.9425 80.4588 33.4671 78.843 34.0464 77.2499L25.7065 72.9247L34.8833 75.0692C35.5217 73.4786 36.2114 71.9172 36.9517 70.3856L29.1704 65.2557L38.022 68.3016C38.8213 66.7835 39.6715 65.2962 40.5728 63.8397L33.3306 57.9891L41.8042 61.8964C42.7564 60.4641 43.7552 59.0678 44.8013 57.7079L38.2349 51.1815L46.2339 55.9052C47.3282 54.5748 48.4683 53.2861 49.6538 52.0389L43.7993 44.9052L51.2593 50.4012C52.4823 49.1862 53.7482 48.015 55.0571 46.8885L49.9712 39.244L56.811 45.4442C58.1575 44.3579 59.5406 43.3231 60.9595 42.3387L56.6821 34.2313L62.8501 41.0712C64.2985 40.127 65.7809 39.2362 67.2964 38.3993L63.8726 29.9022L69.3042 37.3251C70.8304 36.5365 72.398 35.8013 74.0073 35.12L71.4604 26.329L76.1157 34.2635C77.725 33.6359 79.3598 33.0671 81.02 32.5575L79.3706 23.5409L83.2095 31.9218C84.867 31.4551 86.5486 31.0527 88.2544 30.7147L87.5259 21.5536L90.5034 30.3085C92.1933 30.0268 93.9032 29.8053 95.6333 29.6444L95.8345 20.4149L97.9224 29.4677C99.4392 29.3711 100.965 29.3182 102.501 29.3182H103.077L104.219 20.1171L105.386 29.371ZM106.785 105.606C105.378 105.613 104.082 106.367 103.378 107.585L75.9683 155.06C74.7811 157.117 75.688 159.768 77.9097 160.605C133.534 181.578 163.053 137.605 167.801 109.568C168.189 107.28 166.348 105.313 164.027 105.324L106.785 105.606ZM70.0923 51.4354C68.9051 49.3792 66.1561 48.8395 64.3198 50.3446C18.345 88.0301 41.6662 135.58 63.5728 153.711C65.3607 155.191 67.9848 154.58 69.1353 152.564L97.5122 102.85C98.2093 101.629 98.2056 100.129 97.5024 98.911L70.0923 51.4354ZM102.703 97.8593C100.703 97.8593 99.0818 99.4807 99.0815 101.48C99.0815 103.48 100.703 105.101 102.703 105.101C104.702 105.101 106.324 103.48 106.324 101.48C106.323 99.4808 104.702 97.8594 102.703 97.8593ZM166.844 93.6073C157.195 34.949 104.353 31.3706 77.6987 41.2772C75.5234 42.0857 74.7405 44.6637 75.9106 46.6678L104.776 96.0995C105.485 97.3139 106.786 98.0612 108.192 98.0614H163.013C165.387 98.0613 167.23 95.9501 166.844 93.6073Z" fill="url(#paint3_linear_14_33)" fill-opacity="0.1" style="mix-blend-mode:soft-light"/>
</g>
<g filter="url(#filter3_i_14_33)">
<circle cx="103.001" cy="103" r="86.906" fill="#737472" fill-opacity="0.01"/>
</g>
<g filter="url(#filter4_ii_14_33)">
<path d="M133.999 0C159.201 0 171.803 -0.000272901 181.429 4.9043C189.896 9.21859 196.78 16.103 201.095 24.5703C205.999 34.1963 205.999 46.7976 205.999 72V133.999C205.999 159.201 205.999 171.803 201.095 181.429C196.78 189.896 189.896 196.78 181.429 201.095C171.803 205.999 159.201 205.999 133.999 205.999H72C46.7976 205.999 34.1963 205.999 24.5703 201.095C16.103 196.78 9.21859 189.896 4.9043 181.429C-0.000272901 171.803 0 159.201 0 133.999V72C0 46.7977 -0.000366212 34.1963 4.9043 24.5703C9.2186 16.103 16.103 9.2186 24.5703 4.9043C34.1963 -0.000371653 46.7977 0 72 0H133.999ZM103.001 16.0938C55.0041 16.0938 16.0947 55.0032 16.0947 103C16.095 150.997 55.0043 189.905 103.001 189.905C150.998 189.905 189.906 150.997 189.906 103C189.906 55.0033 150.998 16.0939 103.001 16.0938Z" fill="url(#paint4_linear_14_33)"/>
<path d="M133.999 0C159.201 0 171.803 -0.000272901 181.429 4.9043C189.896 9.21859 196.78 16.103 201.095 24.5703C205.999 34.1963 205.999 46.7976 205.999 72V133.999C205.999 159.201 205.999 171.803 201.095 181.429C196.78 189.896 189.896 196.78 181.429 201.095C171.803 205.999 159.201 205.999 133.999 205.999H72C46.7976 205.999 34.1963 205.999 24.5703 201.095C16.103 196.78 9.21859 189.896 4.9043 181.429C-0.000272901 171.803 0 159.201 0 133.999V72C0 46.7977 -0.000366212 34.1963 4.9043 24.5703C9.2186 16.103 16.103 9.2186 24.5703 4.9043C34.1963 -0.000371653 46.7977 0 72 0H133.999ZM103.001 16.0938C55.0041 16.0938 16.0947 55.0032 16.0947 103C16.095 150.997 55.0043 189.905 103.001 189.905C150.998 189.905 189.906 150.997 189.906 103C189.906 55.0033 150.998 16.0939 103.001 16.0938Z" fill="url(#paint5_linear_14_33)" fill-opacity="0.1" style="mix-blend-mode:soft-light"/>
</g>
<defs>
<filter id="filter0_ii_14_33" x="16.0947" y="15.9618" width="173.812" height="179.219" filterUnits="userSpaceOnUse" color-interpolation-filters="sRGB">
<feFlood flood-opacity="0" result="BackgroundImageFix"/>
<feBlend mode="normal" in="SourceGraphic" in2="BackgroundImageFix" result="shape"/>
<feColorMatrix in="SourceAlpha" type="matrix" values="0 0 0 0 0 0 0 0 0 0 0 0 0 0 0 0 0 0 127 0" result="hardAlpha"/>
<feOffset dy="-0.527483"/>
<feGaussianBlur stdDeviation="0.0659354"/>
<feComposite in2="hardAlpha" operator="arithmetic" k2="-1" k3="1"/>
<feColorMatrix type="matrix" values="0 0 0 0 1 0 0 0 0 1 0 0 0 0 1 0 0 0 0.8 0"/>
<feBlend mode="overlay" in2="shape" result="effect1_innerShadow_14_33"/>
<feColorMatrix in="SourceAlpha" type="matrix" values="0 0 0 0 0 0 0 0 0 0 0 0 0 0 0 0 0 0 127 0" result="hardAlpha"/>
<feOffset dy="5.27483"/>
<feGaussianBlur stdDeviation="3.95612"/>
<feComposite in2="hardAlpha" operator="arithmetic" k2="-1" k3="1"/>
<feColorMatrix type="matrix" values="0 0 0 0 0 0 0 0 0 0 0 0 0 0 0 0 0 0 0.6 0"/>
<feBlend mode="normal" in2="effect1_innerShadow_14_33" result="effect2_innerShadow_14_33"/>
</filter>
<filter id="filter1_ddii_14_33" x="40.9952" y="45.8805" width="123.206" height="124.525" filterUnits="userSpaceOnUse" color-interpolation-filters="sRGB">
<feFlood flood-opacity="0" result="BackgroundImageFix"/>
<feColorMatrix in="SourceAlpha" type="matrix" values="0 0 0 0 0 0 0 0 0 0 0 0 0 0 0 0 0 0 127 0" result="hardAlpha"/>
<feOffset dy="2.63742"/>
<feGaussianBlur stdDeviation="1.71432"/>
<feColorMatrix type="matrix" values="0 0 0 0 0 0 0 0 0 0 0 0 0 0 0 0 0 0 1 0"/>
<feBlend mode="normal" in2="BackgroundImageFix" result="effect1_dropShadow_14_33"/>
<feColorMatrix in="SourceAlpha" type="matrix" values="0 0 0 0 0 0 0 0 0 0 0 0 0 0 0 0 0 0 127 0" result="hardAlpha"/>
<feOffset dy="5.80231"/>
<feGaussianBlur stdDeviation="2.63742"/>
<feColorMatrix type="matrix" values="0 0 0 0 0 0 0 0 0 0 0 0 0 0 0 0 0 0 0.5 0"/>
<feBlend mode="normal" in2="effect1_dropShadow_14_33" result="effect2_dropShadow_14_33"/>
<feBlend mode="normal" in="SourceGraphic" in2="effect2_dropShadow_14_33" result="shape"/>
<feColorMatrix in="SourceAlpha" type="matrix" values="0 0 0 0 0 0 0 0 0 0 0 0 0 0 0 0 0 0 127 0" result="hardAlpha"/>
<feOffset dy="1.05497"/>
<feGaussianBlur stdDeviation="1.31871"/>
<feComposite in2="hardAlpha" operator="arithmetic" k2="-1" k3="1"/>
<feColorMatrix type="matrix" values="0 0 0 0 0 0 0 0 0 0 0 0 0 0 0 0 0 0 0.16 0"/>
<feBlend mode="normal" in2="shape" result="effect3_innerShadow_14_33"/>
<feColorMatrix in="SourceAlpha" type="matrix" values="0 0 0 0 0 0 0 0 0 0 0 0 0 0 0 0 0 0 127 0" result="hardAlpha"/>
<feOffset dy="0.395612"/>
<feGaussianBlur stdDeviation="0.131871"/>
<feComposite in2="hardAlpha" operator="arithmetic" k2="-1" k3="1"/>
<feColorMatrix type="matrix" values="0 0 0 0 1 0 0 0 0 1 0 0 0 0 1 0 0 0 0.6 0"/>
<feBlend mode="normal" in2="effect3_innerShadow_14_33" result="effect4_innerShadow_14_33"/>
</filter>
<filter id="filter2_ddii_14_33" x="14.8428" y="18.7984" width="176.118" height="176.21" filterUnits="userSpaceOnUse" color-interpolation-filters="sRGB">
<feFlood flood-opacity="0" result="BackgroundImageFix"/>
<feColorMatrix in="SourceAlpha" type="matrix" values="0 0 0 0 0 0 0 0 0 0 0 0 0 0 0 0 0 0 127 0" result="hardAlpha"/>
<feOffset dy="3.29677"/>
<feGaussianBlur stdDeviation="1.71432"/>
<feColorMatrix type="matrix" values="0 0 0 0 0 0 0 0 0 0 0 0 0 0 0 0 0 0 1 0"/>
<feBlend mode="normal" in2="BackgroundImageFix" result="effect1_dropShadow_14_33"/>
<feColorMatrix in="SourceAlpha" type="matrix" values="0 0 0 0 0 0 0 0 0 0 0 0 0 0 0 0 0 0 127 0" result="hardAlpha"/>
<feOffset dy="3.95612"/>
<feGaussianBlur stdDeviation="2.63742"/>
<feColorMatrix type="matrix" values="0 0 0 0 0 0 0 0 0 0 0 0 0 0 0 0 0 0 0.6 0"/>
<feBlend mode="normal" in2="effect1_dropShadow_14_33" result="effect2_dropShadow_14_33"/>
<feBlend mode="normal" in="SourceGraphic" in2="effect2_dropShadow_14_33" result="shape"/>
<feColorMatrix in="SourceAlpha" type="matrix" values="0 0 0 0 0 0 0 0 0 0 0 0 0 0 0 0 0 0 127 0" result="hardAlpha"/>
<feOffset dy="1.05497"/>
<feGaussianBlur stdDeviation="1.31871"/>
<feComposite in2="hardAlpha" operator="arithmetic" k2="-1" k3="1"/>
<feColorMatrix type="matrix" values="0 0 0 0 0 0 0 0 0 0 0 0 0 0 0 0 0 0 0.16 0"/>
<feBlend mode="normal" in2="shape" result="effect3_innerShadow_14_33"/>
<feColorMatrix in="SourceAlpha" type="matrix" values="0 0 0 0 0 0 0 0 0 0 0 0 0 0 0 0 0 0 127 0" result="hardAlpha"/>
<feOffset dy="0.395612"/>
<feGaussianBlur stdDeviation="0.131871"/>
<feComposite in2="hardAlpha" operator="arithmetic" k2="-1" k3="1"/>
<feColorMatrix type="matrix" values="0 0 0 0 1 0 0 0 0 1 0 0 0 0 1 0 0 0 0.6 0"/>
<feBlend mode="normal" in2="effect3_innerShadow_14_33" result="effect4_innerShadow_14_33"/>
</filter>
<filter id="filter3_i_14_33" x="16.0947" y="16.0936" width="173.812" height="177.768" filterUnits="userSpaceOnUse" color-interpolation-filters="sRGB">
<feFlood flood-opacity="0" result="BackgroundImageFix"/>
<feBlend mode="normal" in="SourceGraphic" in2="BackgroundImageFix" result="shape"/>
<feColorMatrix in="SourceAlpha" type="matrix" values="0 0 0 0 0 0 0 0 0 0 0 0 0 0 0 0 0 0 127 0" result="hardAlpha"/>
<feOffset dy="3.95612"/>
<feGaussianBlur stdDeviation="3.95612"/>
<feComposite in2="hardAlpha" operator="arithmetic" k2="-1" k3="1"/>
<feColorMatrix type="matrix" values="0 0 0 0 0 0 0 0 0 0 0 0 0 0 0 0 0 0 0.7 0"/>
<feBlend mode="normal" in2="shape" result="effect1_innerShadow_14_33"/>
</filter>
<filter id="filter4_ii_14_33" x="-1.05497" y="-1.05497" width="207.054" height="207.318" filterUnits="userSpaceOnUse" color-interpolation-filters="sRGB">
<feFlood flood-opacity="0" result="BackgroundImageFix"/>
<feBlend mode="normal" in="SourceGraphic" in2="BackgroundImageFix" result="shape"/>
<feColorMatrix in="SourceAlpha" type="matrix" values="0 0 0 0 0 0 0 0 0 0 0 0 0 0 0 0 0 0 127 0" result="hardAlpha"/>
<feOffset dx="-1.05497" dy="-1.05497"/>
<feGaussianBlur stdDeviation="0.527483"/>
<feComposite in2="hardAlpha" operator="arithmetic" k2="-1" k3="1"/>
<feColorMatrix type="matrix" values="0 0 0 0 0 0 0 0 0 0 0 0 0 0 0 0 0 0 0.05 0"/>
<feBlend mode="normal" in2="shape" result="effect1_innerShadow_14_33"/>
<feColorMatrix in="SourceAlpha" type="matrix" values="0 0 0 0 0 0 0 0 0 0 0 0 0 0 0 0 0 0 127 0" result="hardAlpha"/>
<feOffset dy="0.263742"/>
<feGaussianBlur stdDeviation="0.131871"/>
<feComposite in2="hardAlpha" operator="arithmetic" k2="-1" k3="1"/>
<feColorMatrix type="matrix" values="0 0 0 0 1 0 0 0 0 1 0 0 0 0 1 0 0 0 0.8 0"/>
<feBlend mode="normal" in2="effect1_innerShadow_14_33" result="effect2_innerShadow_14_33"/>
</filter>
<linearGradient id="paint0_linear_14_33" x1="102.598" y1="46.6718" x2="102.598" y2="159.328" gradientUnits="userSpaceOnUse">
<stop stop-color="#D2E2E8"/>
<stop offset="1" stop-color="#949491"/>
</linearGradient>
<linearGradient id="paint1_linear_14_33" x1="102.598" y1="46.6718" x2="102.598" y2="159.328" gradientUnits="userSpaceOnUse">
<stop offset="0.151042" stop-color="white"/>
<stop offset="1" stop-opacity="0.1"/>
</linearGradient>
<linearGradient id="paint2_linear_14_33" x1="102.902" y1="20.1171" x2="102.902" y2="185.777" gradientUnits="userSpaceOnUse">
<stop stop-color="#D2E2E8"/>
<stop offset="1" stop-color="#949491"/>
</linearGradient>
<linearGradient id="paint3_linear_14_33" x1="102.902" y1="20.1171" x2="102.902" y2="185.777" gradientUnits="userSpaceOnUse">
<stop offset="0.151042" stop-color="white"/>
<stop offset="1" stop-opacity="0.1"/>
</linearGradient>
<linearGradient id="paint4_linear_14_33" x1="103" y1="0" x2="103" y2="205.999" gradientUnits="userSpaceOnUse">
<stop stop-color="#D2E2E8"/>
<stop offset="1" stop-color="#949491"/>
</linearGradient>
<linearGradient id="paint5_linear_14_33" x1="103" y1="0" x2="103" y2="205.999" gradientUnits="userSpaceOnUse">
<stop offset="0.151042" stop-color="white"/>
<stop offset="1" stop-opacity="0.1"/>
</linearGradient>
</defs>
</svg>
