<svg width="88" height="88" viewBox="0 0 88 88" fill="none" xmlns="http://www.w3.org/2000/svg">
<path fill-rule="evenodd" clip-rule="evenodd" d="M0 15C0 6.71573 6.71573 0 15 0H73C81.2843 0 88 6.71573 88 15V73C88 81.2843 81.2843 88 73 88H15C6.71573 88 0 81.2843 0 73V15ZM10 20C10 17.7909 11.7909 16 14 16H73C75.2091 16 77 17.7909 77 20V46C77 48.2091 75.2091 50 73 50H49.5L43.5 56L37.5 50H14C11.7909 50 10 48.2091 10 46V20ZM7 65C7 62.7909 8.79086 61 11 61H20C22.2091 61 24 62.7909 24 65V73C24 75.2091 22.2091 77 20 77H11C8.79086 77 7 75.2091 7 73V65ZM30 61C27.7909 61 26 62.7909 26 65V73C26 75.2091 27.7909 77 30 77H39C41.2091 77 43 75.2091 43 73V65C43 62.7909 41.2091 61 39 61H30ZM45 65C45 62.7909 46.7909 61 49 61H58C60.2091 61 62 62.7909 62 65V73C62 75.2091 60.2091 77 58 77H49C46.7909 77 45 75.2091 45 73V65ZM68 61C65.7909 61 64 62.7909 64 65V73C64 75.2091 65.7909 77 68 77H77C79.2091 77 81 75.2091 81 73V65C81 62.7909 79.2091 61 77 61H68Z" fill="#B4B4B4"/>
</svg>
