<svg width="206" height="206" viewBox="0 0 206 206" fill="none" xmlns="http://www.w3.org/2000/svg">
<g clip-path="url(#clip0_8_19)">
<rect width="206" height="206" rx="45" fill="url(#paint0_linear_8_19)"/>
<g filter="url(#filter0_d_8_19)">
<g filter="url(#filter1_d_8_19)">
<path d="M86.9768 23.4731C90.4874 23.5365 94.8417 23.6217 100.27 23.7331C102.896 23.787 105.39 24.9274 107.145 26.8793L154.956 80.0655V147.168C154.956 168.059 138.304 185.199 117.448 185.415C106.884 185.525 96.8527 185.53 86.215 185.422C65.6853 185.214 49.172 168.544 48.8757 147.991C48.4491 118.407 48.361 92.3608 48.7402 61.5009C48.9979 40.5282 66.0993 23.0958 86.9768 23.4731Z" fill="url(#paint1_linear_8_19)"/>
<path d="M86.9768 23.4731C90.4874 23.5365 94.8417 23.6217 100.27 23.7331C102.896 23.787 105.39 24.9274 107.145 26.8793L154.956 80.0655V147.168C154.956 168.059 138.304 185.199 117.448 185.415C106.884 185.525 96.8527 185.53 86.215 185.422C65.6853 185.214 49.172 168.544 48.8757 147.991C48.4491 118.407 48.361 92.3608 48.7402 61.5009C48.9979 40.5282 66.0993 23.0958 86.9768 23.4731Z" fill="url(#paint2_linear_8_19)" fill-opacity="0.2"/>
<path d="M86.9768 23.4731C90.4874 23.5365 94.8417 23.6217 100.27 23.7331C102.896 23.787 105.39 24.9274 107.145 26.8793L154.956 80.0655V147.168C154.956 168.059 138.304 185.199 117.448 185.415C106.884 185.525 96.8527 185.53 86.215 185.422C65.6853 185.214 49.172 168.544 48.8757 147.991C48.4491 118.407 48.361 92.3608 48.7402 61.5009C48.9979 40.5282 66.0993 23.0958 86.9768 23.4731Z" stroke="url(#paint3_linear_8_19)" stroke-width="3"/>
</g>
<g filter="url(#filter2_d_8_19)">
<path d="M120.967 78.7539C108.364 77.3867 98.7834 66.6358 99.5665 53.9838C100.066 45.9097 100.204 41.4333 101.648 31.5388C102.331 26.856 107.958 24.9149 111.388 28.1752C125.091 41.1996 135.873 53.3239 150.424 70.7836C153.69 74.7017 150.824 80.6308 145.725 80.5201C128.562 80.1478 128.084 79.5261 120.967 78.7539Z" fill="url(#paint4_linear_8_19)"/>
</g>
<g filter="url(#filter3_d_8_19)">
<path d="M60.3849 95.0812C60.325 92.839 62.1751 90.9624 64.4135 90.9948L105.632 91.5911C107.545 91.6188 109.068 93.1266 109.119 95.0423V95.0423C109.175 97.1388 107.458 98.8996 105.364 98.8922L64.1287 98.7452C62.0815 98.7379 60.4396 97.131 60.3849 95.0812V95.0812Z" fill="url(#paint5_linear_8_19)"/>
</g>
<g filter="url(#filter4_f_8_19)">
<path d="M62.0645 92.9666L105.115 93.0966L108.242 94.7003L63.9771 94.2818L62.0645 92.9666Z" fill="white" fill-opacity="0.59"/>
</g>
<g filter="url(#filter5_f_8_19)">
<path d="M62.1971 97.9285L107.576 97.618L105.242 98.4137L63.7203 98.8474L62.1971 97.9285Z" fill="#000852" fill-opacity="0.54"/>
</g>
<g filter="url(#filter6_f_8_19)">
<path d="M62.3473 116.203L134.297 116.54L131.816 118.687L64.2904 118.358L62.3473 116.203Z" fill="#000852" fill-opacity="0.26"/>
</g>
<g filter="url(#filter7_f_8_19)">
<path d="M62.252 133.803L134.202 134.14L131.72 136.287L64.1951 135.958L62.252 133.803Z" fill="#000852" fill-opacity="0.26"/>
</g>
<g filter="url(#filter8_f_8_19)">
<path d="M63.6556 111.937L129.836 112.495L133.898 114.947L65.2105 113.698L63.6556 111.937Z" fill="white" fill-opacity="0.59"/>
</g>
<g filter="url(#filter9_f_8_19)">
<path d="M63.5603 129.537L129.741 130.095L133.803 132.547L65.1152 131.298L63.5603 129.537Z" fill="white" fill-opacity="0.59"/>
</g>
<g filter="url(#filter10_d_8_19)">
<path d="M60.4069 114.414C60.3863 112.093 62.2744 110.209 64.5954 110.235L132.22 110.979C134.307 111.002 135.994 112.692 136.012 114.78V114.78C136.031 116.909 134.309 118.643 132.18 118.64L64.5522 118.53C62.2767 118.526 60.427 116.69 60.4069 114.414V114.414Z" fill="url(#paint6_linear_8_19)"/>
</g>
<g filter="url(#filter11_d_8_19)">
<path d="M60.3116 132.015C60.291 129.694 62.1791 127.81 64.5001 127.835L132.124 128.58C134.212 128.603 135.898 130.293 135.917 132.38V132.38C135.936 134.509 134.214 136.243 132.084 136.24L64.4569 136.13C62.1814 136.126 60.3317 134.29 60.3116 132.015V132.015Z" fill="url(#paint7_linear_8_19)"/>
</g>
<g filter="url(#filter12_f_8_19)">
<path d="M62.2202 111.33L130.638 111.485L135.55 113.091L65.2121 112.647L62.2202 111.33Z" fill="white" fill-opacity="0.59"/>
</g>
<g filter="url(#filter13_f_8_19)">
<path d="M62.125 128.93L130.543 129.085L135.455 130.691L65.1169 130.247L62.125 128.93Z" fill="white" fill-opacity="0.59"/>
</g>
</g>
</g>
<defs>
<filter id="filter0_d_8_19" x="32" y="-18.033" width="173.456" height="229.033" filterUnits="userSpaceOnUse" color-interpolation-filters="sRGB">
<feFlood flood-opacity="0" result="BackgroundImageFix"/>
<feColorMatrix in="SourceAlpha" type="matrix" values="0 0 0 0 0 0 0 0 0 0 0 0 0 0 0 0 0 0 127 0" result="hardAlpha"/>
<feOffset dx="17" dy="-8"/>
<feGaussianBlur stdDeviation="16"/>
<feComposite in2="hardAlpha" operator="out"/>
<feColorMatrix type="matrix" values="0 0 0 0 0 0 0 0 0 0 0 0 0 0 0 0 0 0 0.06 0"/>
<feBlend mode="normal" in2="BackgroundImageFix" result="effect1_dropShadow_8_19"/>
<feBlend mode="normal" in="SourceGraphic" in2="effect1_dropShadow_8_19" result="shape"/>
</filter>
<filter id="filter1_d_8_19" x="40" y="14.967" width="143.456" height="199.033" filterUnits="userSpaceOnUse" color-interpolation-filters="sRGB">
<feFlood flood-opacity="0" result="BackgroundImageFix"/>
<feColorMatrix in="SourceAlpha" type="matrix" values="0 0 0 0 0 0 0 0 0 0 0 0 0 0 0 0 0 0 127 0" result="hardAlpha"/>
<feOffset dx="10" dy="10"/>
<feGaussianBlur stdDeviation="8.5"/>
<feComposite in2="hardAlpha" operator="out"/>
<feColorMatrix type="matrix" values="0 0 0 0 0 0 0 0 0 0 0 0 0 0 0 0 0 0 0.15 0"/>
<feBlend mode="normal" in2="BackgroundImageFix" result="effect1_dropShadow_8_19"/>
<feBlend mode="normal" in="SourceGraphic" in2="effect1_dropShadow_8_19" result="shape"/>
</filter>
<filter id="filter2_d_8_19" x="61.5217" y="15.5569" width="104.292" height="105.965" filterUnits="userSpaceOnUse" color-interpolation-filters="sRGB">
<feFlood flood-opacity="0" result="BackgroundImageFix"/>
<feColorMatrix in="SourceAlpha" type="matrix" values="0 0 0 0 0 0 0 0 0 0 0 0 0 0 0 0 0 0 127 0" result="hardAlpha"/>
<feOffset dx="-12" dy="15"/>
<feGaussianBlur stdDeviation="13"/>
<feComposite in2="hardAlpha" operator="out"/>
<feColorMatrix type="matrix" values="0 0 0 0 0 0 0 0 0 0 0 0 0 0 0 0 0 0 0.15 0"/>
<feBlend mode="normal" in2="BackgroundImageFix" result="effect1_dropShadow_8_19"/>
<feBlend mode="normal" in="SourceGraphic" in2="effect1_dropShadow_8_19" result="shape"/>
</filter>
<filter id="filter3_d_8_19" x="56.3834" y="90.9944" width="56.7374" height="15.8978" filterUnits="userSpaceOnUse" color-interpolation-filters="sRGB">
<feFlood flood-opacity="0" result="BackgroundImageFix"/>
<feColorMatrix in="SourceAlpha" type="matrix" values="0 0 0 0 0 0 0 0 0 0 0 0 0 0 0 0 0 0 127 0" result="hardAlpha"/>
<feOffset dy="4"/>
<feGaussianBlur stdDeviation="2"/>
<feComposite in2="hardAlpha" operator="out"/>
<feColorMatrix type="matrix" values="0 0 0 0 0 0 0 0 0 0 0 0 0 0 0 0 0 0 0.25 0"/>
<feBlend mode="normal" in2="BackgroundImageFix" result="effect1_dropShadow_8_19"/>
<feBlend mode="normal" in="SourceGraphic" in2="effect1_dropShadow_8_19" result="shape"/>
</filter>
<filter id="filter4_f_8_19" x="56.0645" y="86.9666" width="58.1778" height="13.7337" filterUnits="userSpaceOnUse" color-interpolation-filters="sRGB">
<feFlood flood-opacity="0" result="BackgroundImageFix"/>
<feBlend mode="normal" in="SourceGraphic" in2="BackgroundImageFix" result="shape"/>
<feGaussianBlur stdDeviation="3" result="effect1_foregroundBlur_8_19"/>
</filter>
<filter id="filter5_f_8_19" x="56.1971" y="91.618" width="57.3791" height="13.2294" filterUnits="userSpaceOnUse" color-interpolation-filters="sRGB">
<feFlood flood-opacity="0" result="BackgroundImageFix"/>
<feBlend mode="normal" in="SourceGraphic" in2="BackgroundImageFix" result="shape"/>
<feGaussianBlur stdDeviation="3" result="effect1_foregroundBlur_8_19"/>
</filter>
<filter id="filter6_f_8_19" x="56.3473" y="110.203" width="83.95" height="14.484" filterUnits="userSpaceOnUse" color-interpolation-filters="sRGB">
<feFlood flood-opacity="0" result="BackgroundImageFix"/>
<feBlend mode="normal" in="SourceGraphic" in2="BackgroundImageFix" result="shape"/>
<feGaussianBlur stdDeviation="3" result="effect1_foregroundBlur_8_19"/>
</filter>
<filter id="filter7_f_8_19" x="56.252" y="127.803" width="83.95" height="14.484" filterUnits="userSpaceOnUse" color-interpolation-filters="sRGB">
<feFlood flood-opacity="0" result="BackgroundImageFix"/>
<feBlend mode="normal" in="SourceGraphic" in2="BackgroundImageFix" result="shape"/>
<feGaussianBlur stdDeviation="3" result="effect1_foregroundBlur_8_19"/>
</filter>
<filter id="filter8_f_8_19" x="57.6556" y="105.937" width="82.2427" height="15.0101" filterUnits="userSpaceOnUse" color-interpolation-filters="sRGB">
<feFlood flood-opacity="0" result="BackgroundImageFix"/>
<feBlend mode="normal" in="SourceGraphic" in2="BackgroundImageFix" result="shape"/>
<feGaussianBlur stdDeviation="3" result="effect1_foregroundBlur_8_19"/>
</filter>
<filter id="filter9_f_8_19" x="57.5603" y="123.537" width="82.2427" height="15.0101" filterUnits="userSpaceOnUse" color-interpolation-filters="sRGB">
<feFlood flood-opacity="0" result="BackgroundImageFix"/>
<feBlend mode="normal" in="SourceGraphic" in2="BackgroundImageFix" result="shape"/>
<feGaussianBlur stdDeviation="3" result="effect1_foregroundBlur_8_19"/>
</filter>
<filter id="filter10_d_8_19" x="56.4067" y="110.235" width="83.6055" height="16.4052" filterUnits="userSpaceOnUse" color-interpolation-filters="sRGB">
<feFlood flood-opacity="0" result="BackgroundImageFix"/>
<feColorMatrix in="SourceAlpha" type="matrix" values="0 0 0 0 0 0 0 0 0 0 0 0 0 0 0 0 0 0 127 0" result="hardAlpha"/>
<feOffset dy="4"/>
<feGaussianBlur stdDeviation="2"/>
<feComposite in2="hardAlpha" operator="out"/>
<feColorMatrix type="matrix" values="0 0 0 0 0 0 0 0 0 0 0 0 0 0 0 0 0 0 0.25 0"/>
<feBlend mode="normal" in2="BackgroundImageFix" result="effect1_dropShadow_8_19"/>
<feBlend mode="normal" in="SourceGraphic" in2="effect1_dropShadow_8_19" result="shape"/>
</filter>
<filter id="filter11_d_8_19" x="56.3114" y="127.835" width="83.6055" height="16.4052" filterUnits="userSpaceOnUse" color-interpolation-filters="sRGB">
<feFlood flood-opacity="0" result="BackgroundImageFix"/>
<feColorMatrix in="SourceAlpha" type="matrix" values="0 0 0 0 0 0 0 0 0 0 0 0 0 0 0 0 0 0 127 0" result="hardAlpha"/>
<feOffset dy="4"/>
<feGaussianBlur stdDeviation="2"/>
<feComposite in2="hardAlpha" operator="out"/>
<feColorMatrix type="matrix" values="0 0 0 0 0 0 0 0 0 0 0 0 0 0 0 0 0 0 0.25 0"/>
<feBlend mode="normal" in2="BackgroundImageFix" result="effect1_dropShadow_8_19"/>
<feBlend mode="normal" in="SourceGraphic" in2="effect1_dropShadow_8_19" result="shape"/>
</filter>
<filter id="filter12_f_8_19" x="56.2202" y="105.33" width="85.3296" height="13.7607" filterUnits="userSpaceOnUse" color-interpolation-filters="sRGB">
<feFlood flood-opacity="0" result="BackgroundImageFix"/>
<feBlend mode="normal" in="SourceGraphic" in2="BackgroundImageFix" result="shape"/>
<feGaussianBlur stdDeviation="3" result="effect1_foregroundBlur_8_19"/>
</filter>
<filter id="filter13_f_8_19" x="56.125" y="122.93" width="85.3296" height="13.7607" filterUnits="userSpaceOnUse" color-interpolation-filters="sRGB">
<feFlood flood-opacity="0" result="BackgroundImageFix"/>
<feBlend mode="normal" in="SourceGraphic" in2="BackgroundImageFix" result="shape"/>
<feGaussianBlur stdDeviation="3" result="effect1_foregroundBlur_8_19"/>
</filter>
<linearGradient id="paint0_linear_8_19" x1="103" y1="0" x2="103" y2="206" gradientUnits="userSpaceOnUse">
<stop stop-color="#48C8F7"/>
<stop offset="1" stop-color="#1D64F7"/>
</linearGradient>
<linearGradient id="paint1_linear_8_19" x1="46.2528" y1="49.7163" x2="157.074" y2="59.6932" gradientUnits="userSpaceOnUse">
<stop stop-color="#E1E1E1"/>
<stop offset="0.302349" stop-color="#F9F9F9"/>
<stop offset="0.608197" stop-color="#F2F2F2"/>
<stop offset="1" stop-color="#DADADA"/>
</linearGradient>
<linearGradient id="paint2_linear_8_19" x1="90.3083" y1="25.6902" x2="96.3564" y2="186.902" gradientUnits="userSpaceOnUse">
<stop stop-color="white"/>
<stop offset="0.442708" stop-color="#BCBCBC"/>
<stop offset="1" stop-color="#6B6B6B"/>
</linearGradient>
<linearGradient id="paint3_linear_8_19" x1="90.3083" y1="25.6902" x2="100.262" y2="98.1636" gradientUnits="userSpaceOnUse">
<stop stop-color="#F1F1F1"/>
<stop offset="1" stop-color="#D9D9DB"/>
</linearGradient>
<linearGradient id="paint4_linear_8_19" x1="144.26" y1="97.5845" x2="70.3517" y2="46.8224" gradientUnits="userSpaceOnUse">
<stop stop-color="#DFDFDF"/>
<stop offset="0.505208" stop-color="#F7F7F7"/>
<stop offset="0.96875" stop-color="#DFDFDF"/>
</linearGradient>
<linearGradient id="paint5_linear_8_19" x1="84.6064" y1="89.6041" x2="85.1871" y2="100.221" gradientUnits="userSpaceOnUse">
<stop stop-color="#A7B3F7"/>
<stop offset="0.395833" stop-color="#8FA0EF"/>
<stop offset="0.859375" stop-color="#4258D6"/>
</linearGradient>
<linearGradient id="paint6_linear_8_19" x1="98.1678" y1="109.895" x2="98.2379" y2="118.939" gradientUnits="userSpaceOnUse">
<stop stop-color="#9BAAF3"/>
<stop offset="0.411458" stop-color="#7F91EA"/>
<stop offset="0.875" stop-color="#4359D7"/>
</linearGradient>
<linearGradient id="paint7_linear_8_19" x1="98.0725" y1="127.495" x2="98.1426" y2="136.54" gradientUnits="userSpaceOnUse">
<stop stop-color="#9BAAF3"/>
<stop offset="0.411458" stop-color="#7F91EA"/>
<stop offset="0.875" stop-color="#4359D7"/>
</linearGradient>
<clipPath id="clip0_8_19">
<rect width="206" height="206" rx="45" fill="white"/>
</clipPath>
</defs>
</svg>
