<svg width="868" height="868" viewBox="0 0 868 868" fill="none" xmlns="http://www.w3.org/2000/svg">
<g filter="url(#filter0_d_713_356)">
<rect x="22" y="11" width="824" height="824" rx="184" fill="#5F5F5F"/>
</g>
<g clip-path="url(#clip0_713_356)">
<path d="M177.067 63.7102H690.932C747.462 63.7102 793.289 109.537 793.289 166.067V679.932C793.289 736.462 747.462 782.289 690.932 782.289H177.067C120.537 782.289 74.7101 736.462 74.7101 679.932V166.067C74.7101 109.537 120.537 63.7102 177.067 63.7102Z" fill="#282A35" stroke="black"/>
<path d="M482.194 407.681H403.933H325.672V438.985H482.194V407.681Z" fill="#6BE54E" fill-opacity="0.9"/>
<path d="M203.094 408.628V135.901H220.565V408.628H203.094ZM253.484 223.153C252.49 213.849 248.3 206.604 240.913 201.42C233.598 196.235 224.081 193.643 212.362 193.643C204.124 193.643 197.057 194.886 191.162 197.371C185.267 199.857 180.757 203.231 177.632 207.492C174.507 211.753 172.909 216.619 172.838 222.087C172.838 226.633 173.868 230.574 175.928 233.913C178.058 237.251 180.935 240.092 184.557 242.435C188.179 244.708 192.192 246.626 196.595 248.188C200.999 249.751 205.438 251.065 209.912 252.13L230.367 257.243C238.605 259.161 246.524 261.753 254.124 265.02C261.794 268.288 268.648 272.407 274.685 277.378C280.793 282.35 285.622 288.351 289.173 295.383C292.724 302.414 294.5 310.653 294.5 320.099C294.5 332.883 291.233 344.14 284.699 353.87C278.165 363.529 268.719 371.093 256.361 376.562C244.074 381.959 229.195 384.658 211.723 384.658C194.749 384.658 180.011 382.03 167.511 376.775C155.082 371.519 145.352 363.849 138.321 353.763C131.361 343.678 127.597 331.391 127.028 316.903H165.913C166.482 324.502 168.825 330.823 172.945 335.866C177.064 340.908 182.426 344.672 189.031 347.158C195.707 349.644 203.165 350.887 211.403 350.887C219.997 350.887 227.526 349.609 233.989 347.052C240.523 344.424 245.636 340.802 249.33 336.185C253.023 331.498 254.905 326.029 254.976 319.779C254.905 314.097 253.236 309.41 249.969 305.717C246.702 301.952 242.121 298.827 236.226 296.342C230.402 293.785 223.584 291.512 215.771 289.523L190.949 283.131C172.98 278.515 158.776 271.519 148.335 262.144C137.966 252.698 132.781 240.163 132.781 224.538C132.781 211.682 136.261 200.425 143.222 190.766C150.253 181.107 159.805 173.614 171.879 168.288C183.953 162.89 197.625 160.191 212.895 160.191C228.378 160.191 241.943 162.89 253.591 168.288C265.31 173.614 274.507 181.036 281.183 190.553C287.859 199.999 291.304 210.866 291.517 223.153H253.484Z" fill="#6BE54E"/>
</g>
<defs>
<filter id="filter0_d_713_356" x="0" y="0" width="868" height="868" filterUnits="userSpaceOnUse" color-interpolation-filters="sRGB">
<feFlood flood-opacity="0" result="BackgroundImageFix"/>
<feColorMatrix in="SourceAlpha" type="matrix" values="0 0 0 0 0 0 0 0 0 0 0 0 0 0 0 0 0 0 127 0" result="hardAlpha"/>
<feOffset dy="11"/>
<feGaussianBlur stdDeviation="11"/>
<feComposite in2="hardAlpha" operator="out"/>
<feColorMatrix type="matrix" values="0 0 0 0 0 0 0 0 0 0 0 0 0 0 0 0 0 0 0.28 0"/>
<feBlend mode="normal" in2="BackgroundImageFix" result="effect1_dropShadow_713_356"/>
<feBlend mode="normal" in="SourceGraphic" in2="effect1_dropShadow_713_356" result="shape"/>
</filter>
<clipPath id="clip0_713_356">
<rect x="74" y="63" width="720" height="720" rx="130" fill="white"/>
</clipPath>
</defs>
</svg>
