<svg width="24" height="24" viewBox="0 0 24 24" fill="none" xmlns="http://www.w3.org/2000/svg">
<path d="M16.2422 11.9999L23.1212 5.121C24.2929 3.95021 24.2929 2.04983 23.1212 0.878841C21.9494 -0.292947 20.0508 -0.292947 18.879 0.878841L12 7.75777L5.12103 0.878841C3.94923 -0.292947 2.05064 -0.292947 0.878846 0.878841C-0.292949 2.04963 -0.292949 3.95001 0.878846 5.121L7.75782 11.9999L0.878846 18.8789C-0.292949 20.0496 -0.292949 21.95 0.878846 23.121C1.46484 23.707 2.23244 24 2.99984 24C3.76723 24 4.53503 23.707 5.12083 23.121L11.9998 16.2421L18.8788 23.121C19.4648 23.707 20.2324 24 20.9998 24C21.7672 24 22.535 23.707 23.1208 23.121C24.2925 21.9502 24.2925 20.0498 23.1208 18.8789L16.2422 11.9999Z" fill="currentColor"/>
</svg>
