<svg width="206" height="206" viewBox="0 0 206 206" fill="none" xmlns="http://www.w3.org/2000/svg">
<rect width="206" height="206" rx="46" fill="#5F5F5F"/>
<g clip-path="url(#clip0_2_108)">
<path d="M38.7664 13.1775H167.233C181.365 13.1776 192.822 24.6341 192.822 38.7664V167.233C192.822 181.366 181.366 192.822 167.233 192.822H38.7664C24.6341 192.822 13.1776 181.365 13.1775 167.233V38.7664C13.1777 24.6341 24.6341 13.1777 38.7664 13.1775Z" fill="#282A35" stroke="black" stroke-width="0.25"/>
<path d="M115.049 99.1702H95.4833H75.918V106.996H115.049V99.1702Z" fill="#6BE54E" fill-opacity="0.9"/>
<path d="M45.2734 99.657V31.4752H49.6413V99.657H45.2734ZM57.8711 53.2881C57.6225 50.9621 56.5749 49.151 54.7283 47.8548C52.8995 46.5587 50.5203 45.9106 47.5906 45.9106C45.5309 45.9106 43.7642 46.2213 42.2905 46.8428C40.8168 47.4642 39.6893 48.3076 38.908 49.373C38.1268 50.4383 37.7273 51.6546 37.7095 53.0218C37.7095 54.1581 37.967 55.1436 38.4819 55.9781C39.0146 56.8126 39.7337 57.5228 40.6392 58.1088C41.5448 58.6769 42.548 59.1563 43.6488 59.547C44.7497 59.9376 45.8594 60.2661 46.978 60.5324L52.0916 61.8108C54.1513 62.2902 56.131 62.9383 58.0309 63.7551C59.9485 64.5718 61.6619 65.6017 63.1712 66.8445C64.6982 68.0874 65.9056 69.5878 66.7933 71.3456C67.6811 73.1034 68.125 75.1631 68.125 77.5246C68.125 80.7206 67.3083 83.5349 65.6747 85.9674C64.0412 88.3822 61.6797 90.2732 58.5902 91.6404C55.5185 92.9898 51.7987 93.6645 47.4308 93.6645C43.1872 93.6645 39.5029 93.0075 36.3779 91.6936C33.2706 90.3797 30.8381 88.4621 29.0803 85.9408C27.3402 83.4195 26.3992 80.3477 26.2571 76.7256H35.9783C36.1204 78.6254 36.7063 80.2057 37.7362 81.4664C38.766 82.727 40.1065 83.6681 41.7578 84.2895C43.4269 84.911 45.2912 85.2217 47.3509 85.2217C49.4993 85.2217 51.3814 84.9021 52.9972 84.2629C54.6307 83.6059 55.9091 82.7004 56.8324 81.5463C57.7557 80.3744 58.2262 79.0072 58.244 77.4447C58.2262 76.0242 57.809 74.8524 56.9922 73.9291C56.1754 72.988 55.0302 72.2068 53.5565 71.5853C52.1005 70.9461 50.396 70.3779 48.4428 69.8808L42.2372 68.2828C37.745 67.1286 34.1939 65.3797 31.5838 63.036C28.9915 60.6744 27.6953 57.5406 27.6953 53.6343C27.6953 50.4205 28.5654 47.6063 30.3054 45.1915C32.0632 42.7767 34.4514 40.9035 37.4698 39.5718C40.4883 38.2224 43.9063 37.5477 47.7237 37.5477C51.5945 37.5477 54.9858 38.2224 57.8977 39.5718C60.8274 40.9035 63.1268 42.759 64.7958 45.1382C66.4649 47.4997 67.326 50.2164 67.3793 53.2881H57.8711Z" fill="#6BE54E"/>
</g>
<defs>
<clipPath id="clip0_2_108">
<rect x="13" y="13" width="180" height="180" rx="32.5" fill="white"/>
</clipPath>
</defs>
</svg>
