<svg width="206" height="206" viewBox="0 0 206 206" fill="none" xmlns="http://www.w3.org/2000/svg">
<rect width="206" height="206" rx="45" fill="url(#paint0_linear_16_16)"/>
<path fill-rule="evenodd" clip-rule="evenodd" d="M102.499 32.2003C63.6739 32.2003 32.1995 63.6747 32.1995 102.5C32.1995 141.325 63.6739 172.8 102.499 172.8C141.325 172.8 172.8 141.325 172.8 102.5C172.8 63.6747 141.325 32.2003 102.499 32.2003ZM21.0995 102.5C21.0995 57.5443 57.5435 21.1003 102.499 21.1003C147.455 21.1003 183.9 57.5443 183.9 102.5C183.9 147.456 147.455 183.9 102.499 183.9C57.5435 183.9 21.0995 147.456 21.0995 102.5Z" fill="white"/>
<path fill-rule="evenodd" clip-rule="evenodd" d="M176.499 107.433H28.4993V97.5664H176.499V107.433Z" fill="white"/>
<path fill-rule="evenodd" clip-rule="evenodd" d="M97.5655 176.5V28.5001H107.432V176.5H97.5655ZM137.958 102.5C137.958 75.7027 128.322 49.1927 109.429 31.6643L115.301 25.3354C136.288 44.8069 146.592 73.7971 146.592 102.5C146.592 131.203 136.288 160.193 115.301 179.665L109.429 173.335C128.322 155.807 137.958 129.297 137.958 102.5ZM59.3295 102.5C59.3295 73.8388 69.2969 44.8637 89.6447 25.3821L95.6151 31.6181C77.3178 49.1366 67.9628 75.6614 67.9628 102.5C67.9629 129.339 77.318 155.864 95.6154 173.382L89.6448 179.618C69.2971 160.136 59.3296 131.162 59.3295 102.5Z" fill="white"/>
<path fill-rule="evenodd" clip-rule="evenodd" d="M102.499 58.8154C129.254 58.8154 156.462 63.7628 174.904 74.0652C176.986 75.2279 177.731 77.8576 176.568 79.939C175.406 82.0202 172.775 82.765 170.695 81.6024C154.046 72.3024 128.499 67.4488 102.499 67.4488C76.5003 67.4488 50.9531 72.3024 34.3045 81.6024C32.2232 82.765 29.5935 82.0202 28.4308 79.939C27.2683 77.8576 28.0129 75.2279 30.0943 74.0652C48.5375 63.7628 75.7444 58.8154 102.499 58.8154ZM102.499 143.817C129.254 143.817 156.462 138.869 174.904 128.566C176.986 127.404 177.731 124.774 176.568 122.693C175.406 120.611 172.775 119.867 170.695 121.029C154.046 130.329 128.499 135.183 102.499 135.183C76.5003 135.183 50.9531 130.329 34.3045 121.029C32.2232 119.867 29.5935 120.611 28.4308 122.693C27.2683 124.774 28.0129 127.404 30.0943 128.566C48.5375 138.869 75.7444 143.817 102.499 143.817Z" fill="white"/>
<defs>
<linearGradient id="paint0_linear_16_16" x1="103" y1="0" x2="103" y2="206" gradientUnits="userSpaceOnUse">
<stop stop-color="#62A6F8"/>
<stop offset="0.432692" stop-color="#418DF7"/>
<stop offset="1" stop-color="#3A86F7"/>
</linearGradient>
</defs>
</svg>
