<svg width="206" height="206" viewBox="0 0 206 206" fill="none" xmlns="http://www.w3.org/2000/svg">
<rect width="206" height="206" rx="45" fill="url(#paint0_linear_14_24)"/>
<rect width="206" height="206" rx="45" fill="url(#paint1_linear_14_24)" fill-opacity="0.1" style="mix-blend-mode:soft-light"/>
<g filter="url(#filter0_dd_14_24)">
<g filter="url(#filter1_iii_14_24)">
<path d="M103 164.559C146.775 164.559 182.261 134.836 182.261 98.172C182.261 61.5076 146.775 31.7853 103 31.7853C59.2247 31.7853 23.738 61.5076 23.738 98.172C23.738 121.099 37.6148 141.312 58.7174 153.24L58.7419 153.293C61.156 155.037 63.8919 160.535 55.5232 168.582C45.0623 178.641 63.5701 172.606 69.2029 169.186C70.6654 168.298 72.0059 167.41 73.2559 166.582C76.8205 164.22 79.4492 162.346 82.2791 162.346C82.3421 162.346 82.6373 162.363 82.7289 162.379C82.794 162.391 82.8578 162.402 82.9084 162.407C89.3248 163.811 96.0581 164.559 103 164.559Z" fill="white"/>
</g>
<mask id="mask0_14_24" style="mask-type:alpha" maskUnits="userSpaceOnUse" x="23" y="31" width="160" height="144">
<path d="M103 164.559C146.775 164.559 182.261 134.836 182.261 98.172C182.261 61.5076 146.775 31.7853 103 31.7853C59.2247 31.7853 23.738 61.5076 23.738 98.172C23.738 121.099 37.6148 141.312 58.7174 153.24L58.7419 153.293C61.156 155.037 63.8919 160.535 55.5232 168.582C45.0623 178.641 63.5701 172.606 69.2029 169.186C70.6654 168.298 72.0059 167.41 73.2559 166.582C76.8205 164.22 79.4492 162.346 82.2791 162.346C82.3421 162.346 82.6373 162.363 82.7289 162.379C82.794 162.391 82.8578 162.402 82.9084 162.407C89.3248 163.811 96.0581 164.559 103 164.559Z" fill="white"/>
</mask>
<g mask="url(#mask0_14_24)">
<g filter="url(#filter2_f_14_24)">
<path d="M54.9209 170.392C64.0943 161.541 62.096 155.975 59.9502 154.298C63.169 151.401 66.2536 153.091 67.3935 154.298C66.9241 157.987 64.376 166.409 57.9385 170.593C51.501 174.778 53.2445 172.203 54.9209 170.392Z" fill="white"/>
</g>
<g filter="url(#filter3_f_14_24)">
<path d="M58.9424 169.386C63.4486 166.811 67.1904 159.797 67.1904 156.109L72.4209 158.322C71.4553 164.277 62.7646 167.978 58.9424 169.386Z" fill="url(#paint2_linear_14_24)" fill-opacity="0.08"/>
</g>
</g>
</g>
<defs>
<filter id="filter0_dd_14_24" x="17.9357" y="30.4666" width="170.128" height="153.947" filterUnits="userSpaceOnUse" color-interpolation-filters="sRGB">
<feFlood flood-opacity="0" result="BackgroundImageFix"/>
<feColorMatrix in="SourceAlpha" type="matrix" values="0 0 0 0 0 0 0 0 0 0 0 0 0 0 0 0 0 0 127 0" result="hardAlpha"/>
<feOffset dy="1.31871"/>
<feGaussianBlur stdDeviation="1.05497"/>
<feColorMatrix type="matrix" values="0 0 0 0 0 0 0 0 0 0 0 0 0 0 0 0 0 0 0.2 0"/>
<feBlend mode="normal" in2="BackgroundImageFix" result="effect1_dropShadow_14_24"/>
<feColorMatrix in="SourceAlpha" type="matrix" values="0 0 0 0 0 0 0 0 0 0 0 0 0 0 0 0 0 0 127 0" result="hardAlpha"/>
<feOffset dy="4.48361"/>
<feGaussianBlur stdDeviation="2.90116"/>
<feColorMatrix type="matrix" values="0 0 0 0 0 0 0 0 0 0 0 0 0 0 0 0 0 0 0.2 0"/>
<feBlend mode="normal" in2="effect1_dropShadow_14_24" result="effect2_dropShadow_14_24"/>
<feBlend mode="normal" in="SourceGraphic" in2="effect2_dropShadow_14_24" result="shape"/>
</filter>
<filter id="filter1_iii_14_24" x="19.7819" y="24.4005" width="163.798" height="149.727" filterUnits="userSpaceOnUse" color-interpolation-filters="sRGB">
<feFlood flood-opacity="0" result="BackgroundImageFix"/>
<feBlend mode="normal" in="SourceGraphic" in2="BackgroundImageFix" result="shape"/>
<feColorMatrix in="SourceAlpha" type="matrix" values="0 0 0 0 0 0 0 0 0 0 0 0 0 0 0 0 0 0 127 0" result="hardAlpha"/>
<feOffset dx="-3.95612" dy="-7.38476"/>
<feGaussianBlur stdDeviation="5.93419"/>
<feComposite in2="hardAlpha" operator="arithmetic" k2="-1" k3="1"/>
<feColorMatrix type="matrix" values="0 0 0 0 0.058087 0 0 0 0 0.191667 0 0 0 0 0.0399306 0 0 0 0.25 0"/>
<feBlend mode="normal" in2="shape" result="effect1_innerShadow_14_24"/>
<feColorMatrix in="SourceAlpha" type="matrix" values="0 0 0 0 0 0 0 0 0 0 0 0 0 0 0 0 0 0 127 0" result="hardAlpha"/>
<feOffset dx="1.84619" dy="-1.84619"/>
<feGaussianBlur stdDeviation="0.659354"/>
<feComposite in2="hardAlpha" operator="arithmetic" k2="-1" k3="1"/>
<feColorMatrix type="matrix" values="0 0 0 0 1 0 0 0 0 1 0 0 0 0 1 0 0 0 0.45 0"/>
<feBlend mode="normal" in2="effect1_innerShadow_14_24" result="effect2_innerShadow_14_24"/>
<feColorMatrix in="SourceAlpha" type="matrix" values="0 0 0 0 0 0 0 0 0 0 0 0 0 0 0 0 0 0 127 0" result="hardAlpha"/>
<feOffset dx="-1.31871" dy="-4.74735"/>
<feGaussianBlur stdDeviation="3.29677"/>
<feComposite in2="hardAlpha" operator="arithmetic" k2="-1" k3="1"/>
<feColorMatrix type="matrix" values="0 0 0 0 0.81 0 0 0 0 1 0 0 0 0 0.8 0 0 0 1 0"/>
<feBlend mode="normal" in2="effect2_innerShadow_14_24" result="effect3_innerShadow_14_24"/>
</filter>
<filter id="filter2_f_14_24" x="52.049" y="151.38" width="16.6633" height="22.7902" filterUnits="userSpaceOnUse" color-interpolation-filters="sRGB">
<feFlood flood-opacity="0" result="BackgroundImageFix"/>
<feBlend mode="normal" in="SourceGraphic" in2="BackgroundImageFix" result="shape"/>
<feGaussianBlur stdDeviation="0.659354" result="effect1_foregroundBlur_14_24"/>
</filter>
<filter id="filter3_f_14_24" x="57.6237" y="154.79" width="16.1159" height="15.9148" filterUnits="userSpaceOnUse" color-interpolation-filters="sRGB">
<feFlood flood-opacity="0" result="BackgroundImageFix"/>
<feBlend mode="normal" in="SourceGraphic" in2="BackgroundImageFix" result="shape"/>
<feGaussianBlur stdDeviation="0.659354" result="effect1_foregroundBlur_14_24"/>
</filter>
<linearGradient id="paint0_linear_14_24" x1="103" y1="0" x2="103" y2="206" gradientUnits="userSpaceOnUse">
<stop stop-color="#83F180"/>
<stop offset="0.427885" stop-color="#72DD6B"/>
<stop offset="1" stop-color="#5BC34E"/>
</linearGradient>
<linearGradient id="paint1_linear_14_24" x1="103" y1="0" x2="103" y2="206" gradientUnits="userSpaceOnUse">
<stop offset="0.151042" stop-color="white"/>
<stop offset="1" stop-opacity="0.1"/>
</linearGradient>
<linearGradient id="paint2_linear_14_24" x1="68.7998" y1="156.109" x2="60.3506" y2="169.386" gradientUnits="userSpaceOnUse">
<stop/>
<stop offset="1"/>
</linearGradient>
</defs>
</svg>
