<svg width="384" height="456" viewBox="0 0 384 456" fill="none" xmlns="http://www.w3.org/2000/svg">
<path d="M321.53 377.84L241.21 2.42999C237.59 2.42999 233.97 1.51999 231.21 1.51999L298 400.37C306.16 393.21 314.3 386 321.53 377.84ZM382.87 232.56L289.87 10.56C286.334 9.51701 282.683 8.91249 279 8.76001L377.34 270.46C381.06 257.8 382 245.22 382.87 232.56ZM244.87 436.47C251.2 433.75 256.63 430.14 262.96 426.47L216.84 0.570007H205.94L233.9 441C237.693 439.889 241.354 438.37 244.82 436.47H244.87ZM363 313.79L264.64 6.04999C261.02 5.13999 257.41 5.13999 254.69 4.23999L347.69 342.65C353.343 333.332 358.455 323.696 363 313.79ZM383.79 47.57C360.36 33.1 333.23 22.32 305.28 14.18L383.79 178.46V47.57ZM0.25 47.57V218.09C-0.66 311.09 58.04 396.75 138.25 436.47C156.34 445.47 172.54 450.93 191.53 455.38V0.619995C123 0.619995 54.4 16.9 0.230011 47.57H0.25ZM118.47 204.57L129.33 237.05L101.33 216.33L73.33 237.05L84.18 204.57L56.18 184.75H90.5L101.35 152.28L112.2 184.75H146.49L118.47 204.57Z" fill="#B4B4B4"/>
</svg>
