<svg width="30" height="30" viewBox="0 0 30 30" fill="none" xmlns="http://www.w3.org/2000/svg">
<path d="M15 30C23.2842 30 30 23.2842 30 15C30 6.71572 23.2842 0 15 0C6.71573 0 9.53674e-07 6.71572 9.53674e-07 15C9.53674e-07 23.2842 6.71573 30 15 30Z" fill="#B4B4B4"/>
<path d="M14.8992 17.3258V7.29167" stroke="#282A35" stroke-width="2" stroke-linecap="round" stroke-linejoin="round"/>
<path d="M17.3292 14.8868L14.8992 17.3268L12.4692 14.8868" stroke="#282A35" stroke-width="2" stroke-linecap="round" stroke-linejoin="round"/>
<path d="M18.6419 11.0489C21.6244 11.3239 22.7086 12.4406 22.7086 16.8823C22.7086 22.7989 20.7827 22.7989 15.0002 22.7989C9.21608 22.7989 7.29192 22.7989 7.29192 16.8823C7.29192 12.4406 8.37525 11.3239 11.3586 11.0489" stroke="#282A35" stroke-width="2" stroke-linecap="round" stroke-linejoin="round"/>
</svg>
