<svg width="206" height="206" viewBox="0 0 206 206" fill="none" xmlns="http://www.w3.org/2000/svg">
<rect width="206" height="206" rx="45" fill="url(#paint0_linear_9_164)"/>
<g filter="url(#filter0_i_9_164)">
<path d="M69.3934 159.487V82.538H43.8396V159.487H69.3961H69.3934ZM56.6218 72.0338C65.5311 72.0338 71.0777 66.1251 71.0777 58.7408C70.911 51.1883 65.5311 45.4445 56.7912 45.4445C48.0454 45.4445 42.3333 51.1883 42.3333 58.7401C42.3333 66.1244 47.878 72.0332 56.4544 72.0332H56.6198L56.6218 72.0338ZM83.5378 159.487H109.09V116.52C109.09 114.223 109.256 111.92 109.931 110.28C111.778 105.683 115.982 100.925 123.043 100.925C132.287 100.925 135.988 107.98 135.988 118.326V159.487H161.539V115.367C161.539 91.7323 148.934 80.734 132.122 80.734C118.338 80.734 112.285 88.4448 108.921 93.6966H109.092V82.5407H83.5391C83.8726 89.7594 83.5371 159.489 83.5371 159.489L83.5378 159.487Z" fill="white"/>
</g>
<defs>
<filter id="filter0_i_9_164" x="33" y="33" width="140" height="140.5" filterUnits="userSpaceOnUse" color-interpolation-filters="sRGB">
<feFlood flood-opacity="0" result="BackgroundImageFix"/>
<feBlend mode="normal" in="SourceGraphic" in2="BackgroundImageFix" result="shape"/>
<feColorMatrix in="SourceAlpha" type="matrix" values="0 0 0 0 0 0 0 0 0 0 0 0 0 0 0 0 0 0 127 0" result="hardAlpha"/>
<feOffset dy="0.5"/>
<feGaussianBlur stdDeviation="1.25"/>
<feComposite in2="hardAlpha" operator="arithmetic" k2="-1" k3="1"/>
<feColorMatrix type="matrix" values="0 0 0 0 0 0 0 0 0 0 0 0 0 0 0 0 0 0 0.1 0"/>
<feBlend mode="normal" in2="shape" result="effect1_innerShadow_9_164"/>
</filter>
<linearGradient id="paint0_linear_9_164" x1="117.237" y1="212.143" x2="20.9352" y2="-4.41138e-06" gradientUnits="userSpaceOnUse">
<stop stop-color="#006699"/>
<stop offset="1" stop-color="#058CCF"/>
</linearGradient>
</defs>
</svg>
