<svg width="24" height="24" viewBox="0 0 24 24" fill="none" xmlns="http://www.w3.org/2000/svg">
<path fill-rule="evenodd" clip-rule="evenodd" d="M10.6988 15.1508C10.8204 15.0292 10.9168 14.885 10.9825 14.7262C11.0483 14.5674 11.0822 14.3972 11.0822 14.2253C11.0822 14.0535 11.0483 13.8833 10.9825 13.7245C10.9168 13.5657 10.8204 13.4215 10.6988 13.2999C10.3574 12.9585 10.0866 12.5532 9.90177 12.1071C9.71699 11.661 9.62189 11.1829 9.62189 10.7001C9.62189 10.2172 9.71699 9.7391 9.90177 9.29302C10.0866 8.84693 10.3574 8.4416 10.6988 8.10019L15.1059 3.69436C15.4473 3.35294 15.8526 3.08211 16.2987 2.89733C16.7448 2.71256 17.2229 2.61746 17.7058 2.61746C18.1886 2.61746 18.6667 2.71256 19.1128 2.89733C19.5589 3.08211 19.9642 3.35294 20.3056 3.69436C20.6471 4.03578 20.9179 4.44111 21.1027 4.88719C21.2874 5.33328 21.3825 5.81139 21.3825 6.29423C21.3825 6.77708 21.2874 7.25519 21.1027 7.70128C20.9179 8.14736 20.6471 8.55269 20.3056 8.89411L18.9434 10.2551C18.8219 10.3766 18.7255 10.5209 18.6597 10.6797C18.5939 10.8385 18.5601 11.0087 18.5601 11.1805C18.5601 11.3524 18.5939 11.5226 18.6597 11.6814C18.7255 11.8401 18.8219 11.9844 18.9434 12.1059C19.1888 12.3514 19.5217 12.4893 19.8688 12.4893C20.0407 12.4893 20.2108 12.4554 20.3696 12.3896C20.5284 12.3239 20.6727 12.2275 20.7942 12.1059L22.1565 10.7449C23.3369 9.56453 24 7.96357 24 6.29423C24 4.6249 23.3369 3.02394 22.1565 1.84354C20.9761 0.663141 19.3751 0 17.7058 0C16.0364 0 14.4355 0.663141 13.2551 1.84354L8.84799 6.24937C8.2635 6.83383 7.79985 7.52769 7.48352 8.29135C7.16719 9.055 7.00437 9.87348 7.00437 10.7001C7.00437 11.5266 7.16719 12.3451 7.48352 13.1088C7.79985 13.8724 8.2635 14.5663 8.84799 15.1508C9.359 15.6618 10.1878 15.6618 10.6988 15.1508ZM13.2538 8.89411C13.1323 9.01563 13.0359 9.1599 12.9701 9.31869C12.9043 9.47747 12.8705 9.64765 12.8705 9.81952C12.8705 9.99139 12.9043 10.1616 12.9701 10.3204C13.0359 10.4791 13.1323 10.6234 13.2538 10.7449C13.5952 11.0863 13.8661 11.4917 14.0509 11.9378C14.2356 12.3838 14.3308 12.862 14.3308 13.3448C14.3308 13.8276 14.2356 14.3058 14.0509 14.7519C13.8661 15.1979 13.5952 15.6033 13.2538 15.9447L8.89162 20.3069C8.552 20.6563 8.14632 20.9347 7.69814 21.126C7.24997 21.3173 6.76825 21.4175 6.28099 21.421C5.79373 21.4244 5.31064 21.3309 4.85981 21.146C4.40898 20.9611 3.99941 20.6884 3.65489 20.3438C3.31038 19.9993 3.0378 19.5896 2.853 19.1387C2.6682 18.6879 2.57486 18.2048 2.57842 17.7175C2.58197 17.2302 2.68235 16.7485 2.87371 16.3004C3.06508 15.8523 3.34361 15.4467 3.69311 15.1071L4.97062 13.8296C5.21605 13.5842 5.35393 13.2513 5.35393 12.9042C5.35393 12.5571 5.21605 12.2242 4.97062 11.9788C4.72518 11.7334 4.3923 11.5955 4.04521 11.5955C3.69811 11.5955 3.36523 11.7334 3.1198 11.9788L1.84354 13.2563C0.663141 14.4367 0 16.0377 0 17.707C0 19.3763 0.663141 20.9773 1.84354 22.1577C3.02394 23.3381 4.6249 24.0012 6.29423 24.0012C7.96357 24.0012 9.56453 23.3381 10.7449 22.1577L15.1071 17.7955C15.6916 17.211 16.1553 16.5172 16.4716 15.7535C16.7879 14.9899 16.9508 14.1714 16.9508 13.3448C16.9508 12.5182 16.7879 11.6997 16.4716 10.9361C16.1553 10.1724 15.6916 9.47857 15.1071 8.89411C14.9856 8.77257 14.8413 8.67617 14.6826 8.61039C14.5238 8.54462 14.3536 8.51076 14.1817 8.51076C14.0099 8.51076 13.8397 8.54462 13.6809 8.61039C13.5221 8.67617 13.3778 8.77257 13.2563 8.89411H13.2538Z" fill="#B4B4B4"/>
</svg>
