<svg width="40" height="25" viewBox="0 0 111 67" fill="none" xmlns="http://www.w3.org/2000/svg">
<path d="M53.7812 5.98438V62H45.7734V38.0156H13.7031V62H5.69531V5.98438H13.7031V30.0078H45.7734V5.98438H53.7812ZM66.5938 44.3828H74.6016V53.9922H97.2578V5.98438H105.266V53.9922C105.266 55.0859 105.044 56.1276 104.602 57.1172C104.185 58.0807 103.612 58.9271 102.883 59.6562C102.18 60.3854 101.333 60.9583 100.344 61.375C99.3802 61.7917 98.3516 62 97.2578 62H74.6016C73.5078 62 72.4661 61.7917 71.4766 61.375C70.513 60.9583 69.6667 60.3854 68.9375 59.6562C68.2344 58.9271 67.6615 58.0807 67.2188 57.1172C66.8021 56.1276 66.5938 55.0859 66.5938 53.9922V44.3828Z" fill="white"/>
<path d="M53.7812 5.98438H58.7812V0.984375H53.7812V5.98438ZM53.7812 62V67H58.7812V62H53.7812ZM45.7734 62H40.7734V67H45.7734V62ZM45.7734 38.0156H50.7734V33.0156H45.7734V38.0156ZM13.7031 38.0156V33.0156H8.70312V38.0156H13.7031ZM13.7031 62V67H18.7031V62H13.7031ZM5.69531 62H0.695312V67H5.69531V62ZM5.69531 5.98438V0.984375H0.695312V5.98438H5.69531ZM13.7031 5.98438H18.7031V0.984375H13.7031V5.98438ZM13.7031 30.0078H8.70312V35.0078H13.7031V30.0078ZM45.7734 30.0078V35.0078H50.7734V30.0078H45.7734ZM45.7734 5.98438V0.984375H40.7734V5.98438H45.7734ZM48.7812 5.98438V62H58.7812V5.98438H48.7812ZM53.7812 57H45.7734V67H53.7812V57ZM50.7734 62V38.0156H40.7734V62H50.7734ZM45.7734 33.0156H13.7031V43.0156H45.7734V33.0156ZM8.70312 38.0156V62H18.7031V38.0156H8.70312ZM13.7031 57H5.69531V67H13.7031V57ZM10.6953 62V5.98438H0.695312V62H10.6953ZM5.69531 10.9844H13.7031V0.984375H5.69531V10.9844ZM8.70312 5.98438V30.0078H18.7031V5.98438H8.70312ZM13.7031 35.0078H45.7734V25.0078H13.7031V35.0078ZM50.7734 30.0078V5.98438H40.7734V30.0078H50.7734ZM45.7734 10.9844H53.7812V0.984375H45.7734V10.9844ZM66.5938 44.3828V39.3828H61.5938V44.3828H66.5938ZM74.6016 44.3828H79.6016V39.3828H74.6016V44.3828ZM74.6016 53.9922H69.6016V58.9922H74.6016V53.9922ZM97.2578 53.9922V58.9922H102.258V53.9922H97.2578ZM97.2578 5.98438V0.984375H92.2578V5.98438H97.2578ZM105.266 5.98438H110.266V0.984375H105.266V5.98438ZM104.602 57.1172L100.037 55.0754L100.025 55.1039L100.012 55.1326L104.602 57.1172ZM102.883 59.6562L99.3473 56.1207L99.3151 56.1529L99.2836 56.1856L102.883 59.6562ZM100.344 61.375L98.4035 56.7668L98.3813 56.7762L98.3592 56.7857L100.344 61.375ZM71.4766 61.375L69.492 65.9643L69.5141 65.9738L69.5363 65.9832L71.4766 61.375ZM68.9375 59.6562L65.3383 63.1269L65.3698 63.1596L65.402 63.1918L68.9375 59.6562ZM67.2188 57.1172L62.6106 59.0575L62.6418 59.1316L62.6754 59.2047L67.2188 57.1172ZM66.5938 49.3828H74.6016V39.3828H66.5938V49.3828ZM69.6016 44.3828V53.9922H79.6016V44.3828H69.6016ZM74.6016 58.9922H97.2578V48.9922H74.6016V58.9922ZM102.258 53.9922V5.98438H92.2578V53.9922H102.258ZM97.2578 10.9844H105.266V0.984375H97.2578V10.9844ZM100.266 5.98438V53.9922H110.266V5.98438H100.266ZM100.266 53.9922C100.266 54.3887 100.19 54.734 100.037 55.0754L109.166 59.159C109.898 57.5212 110.266 55.7832 110.266 53.9922H100.266ZM100.012 55.1326C99.8413 55.528 99.6224 55.8456 99.3473 56.1207L106.418 63.1918C107.602 62.0086 108.528 60.6334 109.191 59.1017L100.012 55.1326ZM99.2836 56.1856C99.0785 56.3982 98.8068 56.597 98.4035 56.7668L102.284 65.9832C103.86 65.3197 105.281 64.3726 106.482 63.1269L99.2836 56.1856ZM98.3592 56.7857C98.0485 56.9201 97.6981 57 97.2578 57V67C99.005 67 100.712 66.6632 102.328 65.9643L98.3592 56.7857ZM97.2578 57H74.6016V67H97.2578V57ZM74.6016 57C74.1615 57 73.7806 56.92 73.4168 56.7668L69.5363 65.9832C71.1517 66.6634 72.8541 67 74.6016 67V57ZM73.4611 56.7857C73.0657 56.6147 72.7481 56.3958 72.473 56.1207L65.402 63.1918C66.5852 64.375 67.9603 65.3019 69.492 65.9643L73.4611 56.7857ZM72.5367 56.1856C72.2419 55.8798 71.9812 55.5065 71.7621 55.0297L62.6754 59.2047C63.3417 60.6549 64.2269 61.9744 65.3383 63.1269L72.5367 56.1856ZM71.8269 55.1769C71.6738 54.8131 71.5938 54.4323 71.5938 53.9922H61.5938C61.5938 55.7396 61.9304 57.4421 62.6106 59.0575L71.8269 55.1769ZM71.5938 53.9922V44.3828H61.5938V53.9922H71.5938Z" fill="white"/>
</svg>
